<svg xmlns="http://www.w3.org/2000/svg" xmlns:xlink="http://www.w3.org/1999/xlink" width="372" zoomAndPan="magnify" viewBox="0 0 279 96.749999" height="129" preserveAspectRatio="xMidYMid meet" version="1.0"><defs><g/></defs><g fill="#392717" fill-opacity="1"><g transform="translate(20.813802, 51.31741)"><g><path d="M 3.601562 0.277344 C 5.363281 0.277344 6.503906 -0.765625 6.503906 -2.195312 C 6.503906 -3.257812 5.75 -3.964844 4.242188 -4.296875 L 2.980469 -4.585938 C 1.996094 -4.808594 1.574219 -5.183594 1.574219 -5.851562 C 1.574219 -6.660156 2.25 -7.269531 3.3125 -7.269531 C 4.308594 -7.269531 5.050781 -6.613281 5.164062 -5.660156 L 6.039062 -5.882812 C 5.816406 -7.191406 4.730469 -8.085938 3.300781 -8.085938 C 1.707031 -8.085938 0.652344 -7.101562 0.652344 -5.695312 C 0.652344 -4.652344 1.308594 -4.023438 2.691406 -3.699219 L 3.957031 -3.414062 C 5.097656 -3.144531 5.582031 -2.738281 5.582031 -2.050781 C 5.582031 -1.195312 4.832031 -0.542969 3.601562 -0.542969 C 2.238281 -0.542969 1.207031 -1.40625 1.128906 -2.625 L 0.222656 -2.460938 C 0.398438 -0.851562 1.792969 0.277344 3.601562 0.277344 Z M 3.601562 0.277344 "/></g></g></g><g fill="#392717" fill-opacity="1"><g transform="translate(29.378038, 51.31741)"><g><path d="M 0.109375 0 L 1.097656 0 L 1.816406 -1.871094 L 5.582031 -1.871094 L 6.292969 0 L 7.269531 0 L 4.253906 -7.8125 L 3.144531 -7.8125 Z M 2.082031 -2.691406 L 3.6875 -6.902344 L 3.710938 -6.902344 L 5.308594 -2.691406 Z M 2.082031 -2.691406 "/></g></g></g><g fill="#392717" fill-opacity="1"><g transform="translate(38.595936, 51.31741)"><g><path d="M 2.726562 0 L 3.644531 0 L 3.644531 -6.992188 L 6.257812 -6.992188 L 6.257812 -7.8125 L 0.109375 -7.8125 L 0.109375 -6.992188 L 2.726562 -6.992188 Z M 2.726562 0 "/></g></g></g><g fill="#392717" fill-opacity="1"><g transform="translate(46.805636, 51.31741)"><g><path d="M 3.722656 0.277344 C 5.59375 0.277344 6.890625 -1.03125 6.890625 -2.925781 L 6.890625 -7.8125 L 5.960938 -7.8125 L 5.960938 -2.925781 C 5.960938 -1.519531 5.085938 -0.542969 3.722656 -0.542969 C 2.347656 -0.542969 1.472656 -1.617188 1.472656 -2.925781 L 1.472656 -7.8125 L 0.554688 -7.8125 L 0.554688 -2.925781 C 0.554688 -1.03125 1.839844 0.277344 3.722656 0.277344 Z M 3.722656 0.277344 "/></g></g></g><g fill="#392717" fill-opacity="1"><g transform="translate(56.090016, 51.31741)"><g><path d="M 6.316406 0.222656 C 6.859375 0.222656 7.324219 -0.078125 7.644531 -0.519531 L 7.179688 -1.0625 C 7.003906 -0.753906 6.746094 -0.554688 6.492188 -0.554688 C 6.25 -0.554688 6.09375 -0.742188 6.027344 -1.007812 L 5.640625 -2.414062 C 5.507812 -2.878906 5.242188 -3.257812 4.820312 -3.46875 L 4.820312 -3.480469 C 6.125 -3.65625 6.9375 -4.488281 6.9375 -5.574219 C 6.9375 -6.878906 5.785156 -7.8125 4.164062 -7.8125 L 0.664062 -7.8125 L 0.664062 0 L 1.585938 0 L 1.585938 -3.300781 L 3.554688 -3.300781 C 4.089844 -3.300781 4.542969 -2.902344 4.707031 -2.328125 L 5.183594 -0.6875 C 5.339844 -0.15625 5.695312 0.222656 6.316406 0.222656 Z M 1.585938 -4.121094 L 1.585938 -6.992188 L 4.164062 -6.992188 C 5.25 -6.992188 6.015625 -6.394531 6.015625 -5.550781 C 6.015625 -4.707031 5.25 -4.121094 4.164062 -4.121094 Z M 1.585938 -4.121094 "/></g></g></g><g fill="#392717" fill-opacity="1"><g transform="translate(65.573824, 51.31741)"><g><path d="M 0.664062 0 L 3.5 0 C 6.136719 0 7.601562 -1.394531 7.601562 -3.898438 C 7.601562 -6.414062 6.136719 -7.8125 3.5 -7.8125 L 0.664062 -7.8125 Z M 1.585938 -0.820312 L 1.585938 -6.992188 L 3.5 -6.992188 C 5.539062 -6.992188 6.679688 -5.894531 6.679688 -3.898438 C 6.679688 -1.917969 5.539062 -0.820312 3.5 -0.820312 Z M 1.585938 -0.820312 "/></g></g></g><g fill="#392717" fill-opacity="1"><g transform="translate(75.40108, 51.31741)"><g><path d="M 0.109375 0 L 1.097656 0 L 1.816406 -1.871094 L 5.582031 -1.871094 L 6.292969 0 L 7.269531 0 L 4.253906 -7.8125 L 3.144531 -7.8125 Z M 2.082031 -2.691406 L 3.6875 -6.902344 L 3.710938 -6.902344 L 5.308594 -2.691406 Z M 2.082031 -2.691406 "/></g></g></g><g fill="#392717" fill-opacity="1"><g transform="translate(84.61898, 51.31741)"><g><path d="M 2.925781 0 L 3.84375 0 L 3.84375 -2.902344 L 6.648438 -7.8125 L 5.605469 -7.8125 L 3.402344 -3.789062 L 3.390625 -3.789062 L 1.128906 -7.8125 L 0.109375 -7.8125 L 2.925781 -2.902344 Z M 2.925781 0 "/></g></g></g><g fill="#392717" fill-opacity="1"><g transform="translate(198.803656, 51.31741)"><g><path d="M 3.878906 0.277344 C 5.851562 0.277344 7.191406 -1.484375 7.191406 -3.898438 C 7.191406 -6.328125 5.851562 -8.085938 3.878906 -8.085938 C 1.894531 -8.085938 0.554688 -6.328125 0.554688 -3.898438 C 0.554688 -1.484375 1.894531 0.277344 3.878906 0.277344 Z M 3.878906 -0.542969 C 2.4375 -0.542969 1.472656 -1.960938 1.472656 -3.898438 C 1.472656 -5.851562 2.4375 -7.269531 3.878906 -7.269531 C 5.316406 -7.269531 6.269531 -5.851562 6.269531 -3.898438 C 6.269531 -1.960938 5.316406 -0.542969 3.878906 -0.542969 Z M 3.878906 -0.542969 "/></g></g></g><g fill="#392717" fill-opacity="1"><g transform="translate(208.387177, 51.31741)"><g><path d="M 0.554688 0 L 5.851562 0 L 5.851562 -0.820312 L 1.484375 -0.820312 C 1.484375 -1.75 1.882812 -2.316406 3.003906 -2.945312 L 3.988281 -3.5 C 5.195312 -4.175781 5.628906 -4.796875 5.628906 -5.792969 C 5.628906 -7.125 4.652344 -8.085938 3.269531 -8.085938 C 1.785156 -8.085938 0.6875 -7.003906 0.632812 -5.449219 L 1.539062 -5.273438 C 1.585938 -6.570312 2.304688 -7.269531 3.246094 -7.269531 C 4.109375 -7.269531 4.699219 -6.667969 4.699219 -5.851562 C 4.699219 -5.152344 4.375 -4.699219 3.46875 -4.164062 L 2.558594 -3.644531 C 1.097656 -2.8125 0.566406 -2.050781 0.554688 -0.652344 Z M 0.554688 0 "/></g></g></g><g fill="#392717" fill-opacity="1"><g transform="translate(216.519323, 51.31741)"><g><path d="M 1.0625 -4.375 C 1.429688 -4.375 1.695312 -4.632812 1.695312 -4.996094 C 1.695312 -5.351562 1.429688 -5.605469 1.0625 -5.605469 C 0.699219 -5.605469 0.441406 -5.351562 0.441406 -4.996094 C 0.441406 -4.632812 0.699219 -4.375 1.0625 -4.375 Z M 1.0625 0.132812 C 1.429688 0.132812 1.695312 -0.121094 1.695312 -0.488281 C 1.695312 -0.84375 1.429688 -1.097656 1.0625 -1.097656 C 0.699219 -1.097656 0.441406 -0.84375 0.441406 -0.488281 C 0.441406 -0.121094 0.699219 0.132812 1.0625 0.132812 Z M 1.0625 0.132812 "/></g></g></g><g fill="#392717" fill-opacity="1"><g transform="translate(220.496747, 51.31741)"><g><path d="M 3.878906 0.277344 C 5.851562 0.277344 7.191406 -1.484375 7.191406 -3.898438 C 7.191406 -6.328125 5.851562 -8.085938 3.878906 -8.085938 C 1.894531 -8.085938 0.554688 -6.328125 0.554688 -3.898438 C 0.554688 -1.484375 1.894531 0.277344 3.878906 0.277344 Z M 3.878906 -0.542969 C 2.4375 -0.542969 1.472656 -1.960938 1.472656 -3.898438 C 1.472656 -5.851562 2.4375 -7.269531 3.878906 -7.269531 C 5.316406 -7.269531 6.269531 -5.851562 6.269531 -3.898438 C 6.269531 -1.960938 5.316406 -0.542969 3.878906 -0.542969 Z M 3.878906 -0.542969 "/></g></g></g><g fill="#392717" fill-opacity="1"><g transform="translate(230.080267, 51.31741)"><g><path d="M 3.878906 0.277344 C 5.851562 0.277344 7.191406 -1.484375 7.191406 -3.898438 C 7.191406 -6.328125 5.851562 -8.085938 3.878906 -8.085938 C 1.894531 -8.085938 0.554688 -6.328125 0.554688 -3.898438 C 0.554688 -1.484375 1.894531 0.277344 3.878906 0.277344 Z M 3.878906 -0.542969 C 2.4375 -0.542969 1.472656 -1.960938 1.472656 -3.898438 C 1.472656 -5.851562 2.4375 -7.269531 3.878906 -7.269531 C 5.316406 -7.269531 6.269531 -5.851562 6.269531 -3.898438 C 6.269531 -1.960938 5.316406 -0.542969 3.878906 -0.542969 Z M 3.878906 -0.542969 "/></g></g></g><g fill="#392717" fill-opacity="1"><g transform="translate(239.663789, 51.31741)"><g/></g></g><g fill="#392717" fill-opacity="1"><g transform="translate(244.516479, 51.31741)"><g><path d="M 0.664062 0 L 1.5625 0 L 1.5625 -3.078125 L 3.867188 -3.078125 C 5.527344 -3.078125 6.703125 -4.054688 6.703125 -5.441406 C 6.703125 -6.824219 5.539062 -7.8125 3.867188 -7.8125 L 0.664062 -7.8125 Z M 1.5625 -3.910156 L 1.5625 -6.992188 L 3.867188 -6.992188 C 4.996094 -6.992188 5.785156 -6.347656 5.785156 -5.441406 C 5.785156 -4.542969 4.984375 -3.910156 3.867188 -3.910156 Z M 1.5625 -3.910156 "/></g></g></g><g fill="#392717" fill-opacity="1"><g transform="translate(253.280129, 51.31741)"><g><path d="M 0.664062 0 L 1.585938 0 L 1.585938 -6.46875 L 1.605469 -6.46875 L 4.363281 0 L 5.339844 0 L 8.097656 -6.480469 L 8.121094 -6.480469 L 8.121094 0 L 9.039062 0 L 9.039062 -7.8125 L 7.710938 -7.8125 L 4.863281 -1.007812 L 4.851562 -1.007812 L 1.996094 -7.8125 L 0.664062 -7.8125 Z M 0.664062 0 "/></g></g></g><g fill="#392717" fill-opacity="1"><g transform="translate(110.323595, 24.384939)"><g><path d="M 1.15625 0 L 2.753906 0 L 2.753906 -11.242188 L 2.792969 -11.242188 L 7.585938 0 L 9.277344 0 L 14.074219 -11.261719 L 14.109375 -11.261719 L 14.109375 0 L 15.707031 0 L 15.707031 -13.570312 L 13.398438 -13.570312 L 8.449219 -1.75 L 8.433594 -1.75 L 3.464844 -13.570312 L 1.15625 -13.570312 Z M 1.15625 0 "/></g></g></g><g fill="#392717" fill-opacity="1"><g transform="translate(130.382972, 24.384939)"><g><path d="M 0.191406 0 L 1.90625 0 L 3.15625 -3.253906 L 9.703125 -3.253906 L 10.933594 0 L 12.628906 0 L 7.390625 -13.570312 L 5.46875 -13.570312 Z M 3.617188 -4.679688 L 6.410156 -11.992188 L 6.449219 -11.992188 L 9.222656 -4.679688 Z M 3.617188 -4.679688 "/></g></g></g><g fill="#392717" fill-opacity="1"><g transform="translate(146.399663, 24.384939)"><g><path d="M 10.972656 0.386719 C 11.917969 0.386719 12.726562 -0.132812 13.28125 -0.90625 L 12.472656 -1.847656 C 12.167969 -1.308594 11.722656 -0.960938 11.28125 -0.960938 C 10.855469 -0.960938 10.589844 -1.289062 10.472656 -1.75 L 9.796875 -4.195312 C 9.566406 -5.003906 9.105469 -5.660156 8.375 -6.027344 L 8.375 -6.042969 C 10.644531 -6.351562 12.050781 -7.796875 12.050781 -9.683594 C 12.050781 -11.953125 10.050781 -13.570312 7.238281 -13.570312 L 1.15625 -13.570312 L 1.15625 0 L 2.753906 0 L 2.753906 -5.738281 L 6.179688 -5.738281 C 7.105469 -5.738281 7.894531 -5.042969 8.179688 -4.042969 L 9.007812 -1.195312 C 9.277344 -0.269531 9.894531 0.386719 10.972656 0.386719 Z M 2.753906 -7.160156 L 2.753906 -12.148438 L 7.238281 -12.148438 C 9.125 -12.148438 10.453125 -11.109375 10.453125 -9.644531 C 10.453125 -8.179688 9.125 -7.160156 7.238281 -7.160156 Z M 2.753906 -7.160156 "/></g></g></g><g fill="#392717" fill-opacity="1"><g transform="translate(162.878386, 24.384939)"><g><path d="M 7.875 0.480469 C 11.414062 0.480469 13.996094 -1.65625 14.515625 -5.003906 L 12.976562 -5.390625 C 12.570312 -2.675781 10.589844 -0.941406 7.875 -0.941406 C 4.464844 -0.941406 2.289062 -3.214844 2.273438 -6.777344 C 2.273438 -10.355469 4.273438 -12.628906 7.449219 -12.628906 C 9.683594 -12.628906 11.378906 -11.203125 11.78125 -8.933594 L 13.300781 -9.296875 C 12.6875 -12.203125 10.394531 -14.054688 7.449219 -14.054688 C 3.292969 -14.054688 0.671875 -11.222656 0.671875 -6.777344 C 0.671875 -2.347656 3.464844 0.480469 7.875 0.480469 Z M 7.875 0.480469 "/></g></g></g><g fill="#392717" fill-opacity="1"><g transform="translate(180.974191, 24.384939)"><g><path d="M 1.15625 0 L 2.753906 0 L 2.753906 -6.351562 L 10.261719 -6.351562 L 10.261719 0 L 11.859375 0 L 11.859375 -13.570312 L 10.261719 -13.570312 L 10.261719 -7.777344 L 2.753906 -7.777344 L 2.753906 -13.570312 L 1.15625 -13.570312 Z M 1.15625 0 "/></g></g></g><g fill="#392717" fill-opacity="1"><g transform="translate(125.101102, 59.330868)"><g><path d="M 12.621094 0.691406 C 19.394531 0.691406 23.820312 -4.597656 23.820312 -12.308594 C 23.820312 -20.050781 19.394531 -25.308594 12.621094 -25.308594 C 5.84375 -25.308594 1.382812 -20.050781 1.382812 -12.308594 C 1.382812 -4.597656 5.84375 0.691406 12.621094 0.691406 Z M 12.621094 -4.21875 C 9.300781 -4.21875 7.121094 -7.535156 7.121094 -12.308594 C 7.121094 -17.113281 9.300781 -20.433594 12.621094 -20.433594 C 15.9375 -20.433594 18.082031 -17.113281 18.082031 -12.308594 C 18.082031 -7.535156 15.9375 -4.21875 12.621094 -4.21875 Z M 12.621094 -4.21875 "/></g></g></g><g fill="#392717" fill-opacity="1"><g transform="translate(156.038293, 59.330868)"><g><path d="M 1.210938 0 L 20.019531 0 L 20.019531 -4.183594 L 7.15625 -4.183594 C 7.15625 -6.152344 8.125 -7.363281 10.71875 -8.644531 L 13.933594 -10.027344 C 18.289062 -11.859375 20.019531 -13.96875 20.019531 -17.425781 C 20.019531 -22.160156 16.5625 -25.308594 11.339844 -25.308594 C 6.015625 -25.308594 2.179688 -21.886719 1.796875 -16.734375 L 7.433594 -15.730469 C 7.535156 -18.878906 9.09375 -20.605469 11.132812 -20.605469 C 12.863281 -20.605469 14.070312 -19.464844 14.070312 -17.5625 C 14.070312 -15.660156 13.101562 -14.488281 10.511719 -13.277344 L 7.746094 -12.066406 C 3.078125 -10.09375 1.246094 -7.503906 1.210938 -2.730469 Z M 1.210938 0 "/></g></g></g><g fill="#392717" fill-opacity="1"><g transform="translate(124.23562, 80.30015)"><g><path d="M 0.960938 0 L 10.164062 0 L 10.164062 -1.425781 L 2.578125 -1.425781 C 2.578125 -3.042969 3.273438 -4.023438 5.214844 -5.121094 L 6.929688 -6.082031 C 9.027344 -7.257812 9.777344 -8.335938 9.777344 -10.066406 C 9.777344 -12.378906 8.085938 -14.050781 5.679688 -14.050781 C 3.097656 -14.050781 1.195312 -12.164062 1.097656 -9.46875 L 2.675781 -9.164062 C 2.753906 -11.414062 4.003906 -12.628906 5.640625 -12.628906 C 7.140625 -12.628906 8.160156 -11.589844 8.160156 -10.164062 C 8.160156 -8.949219 7.601562 -8.160156 6.023438 -7.238281 L 4.445312 -6.332031 C 1.90625 -4.890625 0.980469 -3.5625 0.960938 -1.136719 Z M 0.960938 0 "/></g></g></g><g fill="#392717" fill-opacity="1"><g transform="translate(138.353891, 80.30015)"><g><path d="M 6.738281 0.480469 C 10.164062 0.480469 12.492188 -2.578125 12.492188 -6.777344 C 12.492188 -10.992188 10.164062 -14.050781 6.738281 -14.050781 C 3.292969 -14.050781 0.960938 -10.992188 0.960938 -6.777344 C 0.960938 -2.578125 3.292969 0.480469 6.738281 0.480469 Z M 6.738281 -0.941406 C 4.234375 -0.941406 2.558594 -3.40625 2.558594 -6.777344 C 2.558594 -10.164062 4.234375 -12.628906 6.738281 -12.628906 C 9.238281 -12.628906 10.894531 -10.164062 10.894531 -6.777344 C 10.894531 -3.40625 9.238281 -0.941406 6.738281 -0.941406 Z M 6.738281 -0.941406 "/></g></g></g><g fill="#392717" fill-opacity="1"><g transform="translate(154.991287, 80.30015)"><g><path d="M 0.960938 0 L 10.164062 0 L 10.164062 -1.425781 L 2.578125 -1.425781 C 2.578125 -3.042969 3.273438 -4.023438 5.214844 -5.121094 L 6.929688 -6.082031 C 9.027344 -7.257812 9.777344 -8.335938 9.777344 -10.066406 C 9.777344 -12.378906 8.085938 -14.050781 5.679688 -14.050781 C 3.097656 -14.050781 1.195312 -12.164062 1.097656 -9.46875 L 2.675781 -9.164062 C 2.753906 -11.414062 4.003906 -12.628906 5.640625 -12.628906 C 7.140625 -12.628906 8.160156 -11.589844 8.160156 -10.164062 C 8.160156 -8.949219 7.601562 -8.160156 6.023438 -7.238281 L 4.445312 -6.332031 C 1.90625 -4.890625 0.980469 -3.5625 0.960938 -1.136719 Z M 0.960938 0 "/></g></g></g><g fill="#392717" fill-opacity="1"><g transform="translate(169.109558, 80.30015)"><g><path d="M 7.082031 0 L 8.679688 0 L 8.679688 -3.078125 L 10.394531 -3.078125 L 10.394531 -4.503906 L 8.679688 -4.503906 L 8.679688 -13.570312 L 6.429688 -13.570312 L 0.386719 -4.121094 L 0.386719 -3.078125 L 7.082031 -3.078125 Z M 2.347656 -4.503906 L 7.0625 -11.894531 L 7.082031 -11.894531 L 7.082031 -4.503906 Z M 2.347656 -4.503906 "/></g></g></g><path fill="#392717" d="M 114.5 60.925781 L 114.5 59.933594 L 115.492188 59.933594 L 115.492188 60.925781 M 114.5 58.941406 L 114.5 57.945312 L 115.492188 57.945312 L 115.492188 58.941406 M 114.5 56.953125 L 114.5 55.960938 L 115.492188 55.960938 L 115.492188 56.953125 M 114.5 54.964844 L 114.5 53.972656 L 115.492188 53.972656 L 115.492188 54.964844 M 114.5 52.980469 L 114.5 51.988281 L 115.492188 51.988281 L 115.492188 52.980469 M 114.5 50.992188 L 114.5 50 L 115.492188 50 L 115.492188 50.992188 M 114.5 49.007812 L 114.5 48.011719 L 115.492188 48.011719 L 115.492188 49.007812 M 114.5 47.019531 L 114.5 46.027344 L 115.492188 46.027344 L 115.492188 47.019531 M 114.5 45.03125 L 114.5 44.039062 L 115.492188 44.039062 L 115.492188 45.03125 M 114.5 43.046875 L 114.5 42.050781 L 115.492188 42.050781 L 115.492188 43.046875 M 114.5 41.058594 L 114.5 40.066406 L 115.492188 40.066406 L 115.492188 41.058594 M 114.5 39.070312 L 114.5 38.078125 L 115.492188 38.078125 L 115.492188 39.070312 M 114.5 37.085938 L 114.5 36.09375 L 115.492188 36.09375 L 115.492188 37.085938 M 114.5 35.097656 L 114.5 34.105469 L 115.492188 34.105469 L 115.492188 35.097656 " fill-opacity="1" fill-rule="nonzero"/><path fill="#392717" d="M 186.851562 60.925781 L 186.851562 59.933594 L 187.84375 59.933594 L 187.84375 60.925781 M 186.851562 58.941406 L 186.851562 57.945312 L 187.84375 57.945312 L 187.84375 58.941406 M 186.851562 56.953125 L 186.851562 55.960938 L 187.84375 55.960938 L 187.84375 56.953125 M 186.851562 54.964844 L 186.851562 53.972656 L 187.84375 53.972656 L 187.84375 54.964844 M 186.851562 52.980469 L 186.851562 51.988281 L 187.84375 51.988281 L 187.84375 52.980469 M 186.851562 50.992188 L 186.851562 50 L 187.84375 50 L 187.84375 50.992188 M 186.851562 49.007812 L 186.851562 48.011719 L 187.84375 48.011719 L 187.84375 49.007812 M 186.851562 47.019531 L 186.851562 46.027344 L 187.84375 46.027344 L 187.84375 47.019531 M 186.851562 45.03125 L 186.851562 44.039062 L 187.84375 44.039062 L 187.84375 45.03125 M 186.851562 43.046875 L 186.851562 42.050781 L 187.84375 42.050781 L 187.84375 43.046875 M 186.851562 41.058594 L 186.851562 40.066406 L 187.84375 40.066406 L 187.84375 41.058594 M 186.851562 39.070312 L 186.851562 38.078125 L 187.84375 38.078125 L 187.84375 39.070312 M 186.851562 37.085938 L 186.851562 36.09375 L 187.84375 36.09375 L 187.84375 37.085938 M 186.851562 35.097656 L 186.851562 34.105469 L 187.84375 34.105469 L 187.84375 35.097656 " fill-opacity="1" fill-rule="nonzero"/></svg>