<svg xmlns="http://www.w3.org/2000/svg" xmlns:xlink="http://www.w3.org/1999/xlink" width="204" zoomAndPan="magnify" viewBox="0 0 153 234.749995" height="313" preserveAspectRatio="xMidYMid meet" version="1.0"><defs><g/><clipPath id="af97fb5db7"><path d="M 0.0820312 0 L 152.917969 0 L 152.917969 234.5 L 0.0820312 234.5 Z M 0.0820312 0 " clip-rule="nonzero"/></clipPath><clipPath id="86a103f6b4"><path d="M 0.632812 0.398438 L 152.070312 0.398438 L 152.070312 215.90625 L 0.632812 215.90625 Z M 0.632812 0.398438 " clip-rule="nonzero"/></clipPath></defs><g clip-path="url(#af97fb5db7)"><path fill="#ffffff" d="M 0.0820312 0 L 152.917969 0 L 152.917969 234.5 L 0.0820312 234.5 Z M 0.0820312 0 " fill-opacity="1" fill-rule="nonzero"/></g><g clip-path="url(#86a103f6b4)"><path stroke-linecap="butt" transform="matrix(0.478172, 0, 0, 0.478803, 0.679557, 0.398535)" fill="none" stroke-linejoin="miter" d="M 313.996991 447.608588 L 2.45918 447.608588 L 2.45918 154.103186 C 2.45918 151.614884 2.524533 149.134741 2.6389 146.662755 C 2.761437 144.182612 2.949327 141.702468 3.186232 139.238642 C 3.431306 136.766657 3.733563 134.30283 4.101174 131.847161 C 4.468785 129.391493 4.893579 126.952141 5.375558 124.51279 C 5.857536 122.081596 6.404868 119.658562 7.001214 117.251843 C 7.605729 114.845125 8.267429 112.454724 8.986312 110.080639 C 9.713364 107.706554 10.489431 105.348786 11.322682 103.015493 C 12.164102 100.674042 13.054537 98.365224 14.002155 96.072723 C 14.949774 93.780222 15.954577 91.512196 17.016563 89.268645 C 18.07855 87.025095 19.19772 84.806019 20.365905 82.619577 C 21.53409 80.424976 22.759459 78.271167 24.033843 76.141833 C 25.308227 74.0125 26.639794 71.915799 28.012208 69.851733 C 29.39279 67.787666 30.822387 65.764391 32.300999 63.765591 C 33.779611 61.774949 35.307238 59.816941 36.883879 57.899725 C 38.452351 55.982509 40.078008 54.106085 41.744509 52.262294 C 43.411011 50.426661 45.118359 48.631821 46.874721 46.877772 C 48.631083 45.115565 50.428291 43.410466 52.266344 41.746159 C 54.104398 40.073694 55.983297 38.458337 57.903042 36.883773 C 59.822787 35.309208 61.775208 33.783593 63.768475 32.29877 C 65.761742 30.822106 67.787685 29.394392 69.854474 28.015628 C 71.913094 26.636864 74.012559 25.30705 76.144701 24.034345 C 78.268674 22.76164 80.425324 21.537885 82.61465 20.36308 C 84.803976 19.196433 87.025978 18.078737 89.264319 17.018149 C 91.510829 15.957562 93.773677 14.954083 96.069201 13.999554 C 98.364726 13.053183 100.676589 12.163921 103.012959 11.323609 C 105.349329 10.491456 107.710207 9.708253 110.079253 8.990317 C 112.456469 8.27238 114.850023 7.603394 117.251746 7.007833 C 119.661639 6.404114 122.0797 5.857504 124.5141 5.37616 C 126.9485 4.886658 129.391069 4.462423 131.849976 4.103455 C 134.300714 3.736328 136.76779 3.434469 139.234866 3.189718 C 141.710112 2.944967 144.177188 2.765483 146.660602 2.643107 C 149.135848 2.520732 151.619262 2.463623 154.102677 2.463623 L 162.312649 2.463623 C 164.796063 2.455465 167.271309 2.520732 169.754723 2.643107 C 172.229968 2.757324 174.705214 2.944967 177.180459 3.181559 C 179.647535 3.42631 182.106443 3.72817 184.56535 4.095297 C 187.024257 4.454265 189.466826 4.8785 191.901225 5.368002 C 194.335625 5.849345 196.753686 6.387798 199.163579 6.991517 C 201.573471 7.595236 203.967025 8.256064 206.336072 8.974 C 208.713288 9.700095 211.074165 10.475139 213.410536 11.307293 C 215.746906 12.147605 218.058769 13.036867 220.354293 13.991395 C 222.649818 14.937766 224.920835 15.941245 227.159176 17.001833 C 229.405685 18.06242 231.619519 19.180117 233.808845 20.346763 C 235.998171 21.521568 238.162989 22.745323 240.286962 24.018028 C 242.419104 25.290733 244.51857 26.620547 246.57719 27.999311 C 248.643979 29.378075 250.669922 30.805789 252.671358 32.282454 C 254.664625 33.759118 256.617046 35.284733 258.536791 36.859297 C 260.456536 38.433862 262.335435 40.057377 264.173488 41.721684 C 266.011542 43.394149 267.80875 45.099248 269.565112 46.853297 C 271.321474 48.615504 273.036991 50.410345 274.703492 52.245977 C 276.369994 54.089768 277.987481 55.966192 279.564123 57.883409 C 281.140764 59.800625 282.668391 61.758633 284.147003 63.749274 C 285.625615 65.748074 287.055212 67.771349 288.435794 69.835416 C 289.816377 71.899483 291.139775 73.996183 292.414159 76.125517 C 293.696712 78.25485 294.913912 80.416817 296.090266 82.60326 C 297.258451 84.789702 298.369452 87.008778 299.431439 89.252329 C 300.493425 91.49588 301.498228 93.763905 302.454015 96.056407 C 303.401634 98.348908 304.292069 100.665884 305.133489 103.007335 C 305.96674 105.340628 306.750976 107.698396 307.469859 110.072481 C 308.188742 112.446565 308.850442 114.836967 309.454957 117.243685 C 310.059472 119.658562 310.598635 122.073438 311.088782 124.51279 C 311.570761 126.943983 311.995555 129.391493 312.354997 131.847161 C 312.722608 134.30283 313.024865 136.766657 313.269939 139.230483 C 313.515013 141.702468 313.694734 144.182612 313.817271 146.654597 C 313.939807 149.134741 313.996991 151.614884 313.996991 154.103186 Z M 313.996991 447.608588 " stroke="#231f20" stroke-width="4.92" stroke-opacity="1" stroke-miterlimit="10"/></g><g fill="#000000" fill-opacity="1"><g transform="translate(40.083823, 120.119775)"><g><path d="M 52.425781 0.0898438 L 52.425781 -4.421875 C 52.425781 -4.601562 52.335938 -4.78125 52.246094 -4.871094 C 52.066406 -4.871094 51.886719 -4.964844 51.792969 -4.871094 C 43.402344 -0.8125 33.746094 -0.359375 10.378906 -0.359375 L 10.378906 -70.652344 C 10.378906 -71.375 10.917969 -71.917969 11.640625 -71.917969 C 11.910156 -71.917969 12.089844 -72.097656 12.089844 -72.367188 C 12.089844 -72.640625 11.910156 -72.820312 11.640625 -72.820312 L 6.136719 -72.820312 C 5.957031 -72.820312 5.773438 -72.640625 5.773438 -72.367188 C 5.773438 -72.097656 5.957031 -71.917969 6.136719 -71.917969 C 6.859375 -71.917969 7.488281 -71.375 7.488281 -70.652344 L 7.488281 -1.714844 C 7.488281 -0.992188 6.859375 -0.359375 6.136719 -0.359375 C 5.957031 -0.359375 5.773438 -0.179688 5.773438 0.0898438 C 5.773438 0.269531 5.957031 0.453125 6.136719 0.453125 L 51.976562 0.453125 C 52.246094 0.453125 52.425781 0.269531 52.425781 0.0898438 Z M 52.425781 0.0898438 "/></g></g></g><g fill="#000000" fill-opacity="1"><g transform="translate(69.351849, 184.325288)"><g><path d="M 7.308594 -16.601562 C 7.21875 -16.695312 7.128906 -16.695312 7.039062 -16.695312 L 4.511719 -16.695312 C 4.332031 -16.695312 4.152344 -16.511719 4.152344 -16.332031 C 4.152344 -9.203125 9.566406 -2.976562 17.957031 -0.269531 C 20.664062 0.632812 23.640625 1.082031 26.621094 1.082031 C 26.890625 1.082031 27.160156 1.082031 27.523438 1.082031 C 27.613281 1.082031 27.613281 1.082031 27.703125 1.082031 C 28.0625 1.082031 28.425781 1.082031 28.695312 0.992188 C 40.335938 0.179688 49.085938 -7.21875 49.085938 -16.332031 C 49.085938 -21.746094 45.660156 -26.980469 39.972656 -30.230469 L 14.527344 -45.027344 C 9.476562 -47.914062 6.585938 -52.425781 6.585938 -57.207031 C 6.585938 -65.058594 14.347656 -71.644531 24.542969 -72.457031 C 24.816406 -72.457031 25.175781 -72.457031 25.535156 -72.457031 C 25.898438 -72.457031 26.257812 -72.457031 26.621094 -72.457031 C 29.507812 -72.457031 32.304688 -72.097656 34.921875 -71.195312 C 45.296875 -67.675781 46.472656 -61 45.75 -56.035156 C 45.75 -55.945312 45.75 -55.765625 45.839844 -55.675781 C 45.929688 -55.585938 46.109375 -55.585938 46.199219 -55.585938 L 48.636719 -55.585938 C 48.90625 -55.585938 49.085938 -55.765625 49.085938 -56.035156 C 49.085938 -63.074219 43.671875 -69.390625 35.191406 -72.097656 C 32.484375 -72.910156 29.597656 -73.359375 26.621094 -73.359375 C 26.257812 -73.359375 25.988281 -73.359375 25.71875 -73.359375 C 25.625 -73.359375 25.535156 -73.359375 25.535156 -73.359375 C 25.535156 -73.359375 25.445312 -73.359375 25.445312 -73.359375 C 25.175781 -73.359375 24.816406 -73.359375 24.453125 -73.269531 C 12.902344 -72.457031 4.152344 -65.058594 4.152344 -56.035156 C 4.152344 -50.441406 7.398438 -45.296875 13.175781 -42.050781 L 38.710938 -27.25 C 43.671875 -24.363281 46.5625 -19.851562 46.5625 -15.070312 C 46.5625 -7.21875 38.890625 -0.632812 28.695312 0.179688 C 28.332031 0.179688 27.972656 0.179688 27.613281 0.179688 C 27.25 0.179688 26.980469 0.179688 26.621094 0.179688 C 23.730469 0.179688 20.84375 -0.179688 18.226562 -1.082031 C 7.941406 -4.601562 6.675781 -11.28125 7.398438 -16.242188 C 7.488281 -16.332031 7.398438 -16.511719 7.308594 -16.601562 Z M 7.308594 -16.601562 "/></g></g></g><g fill="#000000" fill-opacity="1"><g transform="translate(25.807424, 157.60374)"><g><path d="M 38.585938 -38.148438 C 38.292969 -38.21875 38.074219 -38.21875 37.785156 -38.21875 C 37.347656 -38.292969 36.835938 -38.292969 36.183594 -38.292969 C 34.070312 -38.292969 32.03125 -38.003906 30.140625 -37.347656 C 30.140625 -37.347656 30.066406 -37.347656 30.066406 -37.347656 C 25.625 -35.816406 22.421875 -32.980469 21.113281 -29.558594 C 13.832031 -29.628906 7.933594 -36.035156 7.933594 -43.972656 C 7.933594 -51.980469 13.90625 -58.460938 21.183594 -58.460938 C 21.257812 -58.460938 21.257812 -58.460938 21.257812 -58.460938 C 21.550781 -58.460938 21.839844 -58.460938 22.132812 -58.460938 C 24.460938 -58.460938 26.71875 -58.167969 28.828125 -57.441406 C 37.128906 -54.601562 38.148438 -49.214844 37.566406 -45.210938 C 37.566406 -45.136719 37.566406 -44.992188 37.636719 -44.917969 C 37.710938 -44.84375 37.785156 -44.84375 37.929688 -44.84375 L 39.894531 -44.84375 C 40.113281 -44.84375 40.257812 -44.992188 40.257812 -45.210938 C 40.257812 -50.886719 35.890625 -55.984375 29.046875 -58.167969 C 26.863281 -58.824219 24.535156 -59.1875 22.132812 -59.1875 C 21.839844 -59.1875 21.550781 -59.1875 21.332031 -59.1875 C 21.257812 -59.1875 21.257812 -59.1875 21.257812 -59.1875 L 20.3125 -59.1875 C 12.085938 -59.1875 5.386719 -52.417969 5.386719 -43.972656 C 5.386719 -36.765625 10.410156 -30.648438 17.109375 -29.191406 C 10.410156 -27.664062 5.386719 -21.621094 5.386719 -14.34375 C 5.386719 -5.96875 12.085938 0.875 20.3125 0.875 L 21.257812 0.875 C 21.332031 0.875 21.402344 0.875 21.550781 0.875 C 21.621094 0.875 21.695312 0.875 21.839844 0.875 L 22.277344 0.875 C 24.679688 0.875 26.9375 0.507812 29.046875 -0.21875 C 29.046875 -0.21875 29.121094 -0.21875 29.121094 -0.21875 C 35.890625 -2.402344 40.257812 -7.5 40.257812 -13.175781 L 45.644531 -16.308594 C 49.652344 -18.636719 51.980469 -22.277344 51.980469 -26.136719 C 51.980469 -32.179688 46.230469 -37.273438 38.585938 -38.148438 Z M 28.828125 -0.875 C 26.9375 -0.292969 24.898438 0.0742188 22.785156 0.144531 C 23.515625 -2.257812 25.261719 -4.441406 27.882812 -5.96875 L 37.710938 -11.722656 C 37.855469 -7.933594 36.183594 -3.421875 28.828125 -0.875 Z M 44.699219 -18.492188 L 26.9375 -8.152344 C 23.441406 -6.117188 21.257812 -3.128906 20.75 0.144531 C 13.613281 -0.21875 7.933594 -6.625 7.933594 -14.34375 C 7.933594 -22.203125 13.6875 -28.539062 20.894531 -28.757812 C 20.601562 -27.882812 20.457031 -27.007812 20.457031 -26.0625 C 20.457031 -25.84375 20.675781 -25.699219 20.820312 -25.699219 L 22.570312 -25.699219 C 22.640625 -25.699219 22.785156 -25.773438 22.785156 -25.84375 C 22.859375 -25.917969 22.933594 -25.988281 22.933594 -26.136719 C 22.351562 -29.558594 23.222656 -34.144531 30.285156 -36.617188 C 30.285156 -36.691406 30.359375 -36.691406 30.359375 -36.691406 C 32.179688 -37.273438 34.144531 -37.566406 36.183594 -37.566406 C 36.765625 -37.566406 37.273438 -37.566406 37.710938 -37.566406 C 38.003906 -37.492188 38.21875 -37.492188 38.511719 -37.492188 C 45.28125 -36.617188 50.160156 -32.25 50.160156 -27.007812 C 50.160156 -23.660156 48.195312 -20.53125 44.699219 -18.492188 Z M 44.699219 -18.492188 "/></g></g></g></svg>