<svg xmlns="http://www.w3.org/2000/svg" width="330" height="497" version="1.0" viewBox="0 0 247.5 372.75"><defs><clipPath id="a"><path d="M42.465.648h151.293v215.305H42.465Zm0 0"/></clipPath></defs><g clip-path="url(#a)"><path fill="none" stroke="#231f20" stroke-miterlimit="10" stroke-width="4.92" d="M314 447.61H2.458V154.102c0-2.483.065-4.965.18-7.44.122-2.482.31-4.956.547-7.422.246-2.475.548-4.933.916-7.39.36-2.459.785-4.9 1.268-7.334.49-2.434 1.03-4.85 1.635-7.26a155.352 155.352 0 0 1 1.987-7.178 148.35 148.35 0 0 1 5.012-14.005 148.57 148.57 0 0 1 3.018-6.81 148.527 148.527 0 0 1 3.344-6.648 153.104 153.104 0 0 1 7.654-12.763 148.241 148.241 0 0 1 4.284-6.084c1.472-1.993 3.001-3.952 4.58-5.863a151.09 151.09 0 0 1 4.857-5.643 152.121 152.121 0 0 1 10.523-10.518c1.84-1.666 3.72-3.291 5.634-4.867a159.042 159.042 0 0 1 5.871-4.573 156.78 156.78 0 0 1 6.084-4.287c2.06-1.38 4.162-2.703 6.288-3.986a148.177 148.177 0 0 1 6.476-3.666 158.026 158.026 0 0 1 6.648-3.348 148.37 148.37 0 0 1 6.803-3.014 155.854 155.854 0 0 1 6.942-2.678 152.388 152.388 0 0 1 21.506-5.953c2.436-.482 4.881-.907 7.334-1.274 2.453-.36 4.915-.662 7.384-.907 2.47-.245 4.947-.424 7.425-.547a150.84 150.84 0 0 1 7.44-.187h8.21c2.486 0 4.964.065 7.441.187 2.478.115 4.956.302 7.425.54 2.47.244 4.939.546 7.392.914 2.453.36 4.898.784 7.335 1.266a145.77 145.77 0 0 1 7.26 1.633c2.413.596 4.8 1.257 7.18 1.984a155.24 155.24 0 0 1 7.065 2.328 162.59 162.59 0 0 1 6.95 2.678c2.29.947 4.563 1.96 6.804 3.013a148.67 148.67 0 0 1 6.647 3.349A148.183 148.183 0 0 1 246.58 28c2.061 1.38 4.097 2.808 6.084 4.286a144.75 144.75 0 0 1 5.871 4.573 152.434 152.434 0 0 1 16.166 15.386 152.132 152.132 0 0 1 4.865 5.634c1.57 1.92 3.1 3.88 4.58 5.872a148.241 148.241 0 0 1 4.284 6.083 162.934 162.934 0 0 1 3.99 6.288 148.292 148.292 0 0 1 3.664 6.484 144.412 144.412 0 0 1 3.352 6.648 148.275 148.275 0 0 1 3.018 6.802c.948 2.295 1.84 4.606 2.682 6.95.834 2.335 1.61 4.687 2.33 7.063.72 2.376 1.382 4.77 1.987 7.178a157.71 157.71 0 0 1 1.635 7.26c.483 2.433.908 4.883 1.268 7.341.368 2.45.67 4.916.916 7.382.237 2.475.425 4.95.548 7.423.122 2.483.18 4.965.18 7.448Zm0 0" transform="matrix(.47772 0 0 .47835 42.513 .65)"/></g><path d="M134.255 120.346v-4.508c0-.18-.09-.36-.18-.449-.18 0-.36-.09-.45 0-8.382 4.055-18.03 4.508-41.378 4.508V49.67c0-.722.539-1.261 1.262-1.261.27 0 .449-.18.449-.454 0-.269-.18-.449-.45-.449h-5.5c-.18 0-.359.18-.359.45 0 .273.18.453.36.453.722 0 1.351.539 1.351 1.261v68.875c0 .72-.629 1.352-1.351 1.352-.18 0-.36.18-.36.45 0 .179.18.358.36.358h45.796c.27 0 .45-.18.45-.359Zm0 0"/><path d="M118.42 167.815c-.09-.09-.18-.09-.269-.09h-2.523c-.18 0-.36.18-.36.36 0 7.12 5.406 13.339 13.793 16.046 2.703.902 5.676 1.352 8.653 1.352h1.082c.359 0 .722 0 .992-.09 11.629-.813 20.37-8.203 20.37-17.309 0-5.41-3.425-10.637-9.1-13.883l-25.423-14.785c-5.05-2.883-7.933-7.39-7.933-12.168 0-7.844 7.75-14.426 17.937-15.238h2.075c2.886 0 5.68.363 8.292 1.262 10.368 3.515 11.54 10.187 10.82 15.148 0 .09 0 .27.09.36.09.09.27.09.36.09h2.434c.27 0 .449-.18.449-.45 0-7.035-5.406-13.344-13.883-16.047a29.749 29.749 0 0 0-8.563-1.261H136.542c-.269 0-.632 0-.992.09-11.539.808-20.28 8.202-20.28 17.218 0 5.586 3.241 10.727 9.01 13.973l25.513 14.781c4.96 2.887 7.843 7.395 7.843 12.172 0 7.844-7.66 14.422-17.847 15.234h-2.074c-2.883 0-5.77-.36-8.383-1.261-10.278-3.516-11.54-10.188-10.82-15.145.09-.09 0-.27-.09-.36Zm0 0"/><path d="M106.164 119.591c-.29-.07-.508-.07-.801-.07-.434-.074-.945-.074-1.598-.074-2.11 0-4.144.293-6.039.945h-.07c-4.438 1.527-7.637 4.363-8.945 7.785-7.274-.074-13.164-6.476-13.164-14.402 0-8 5.96-14.473 13.234-14.473h.945c2.328 0 4.582.29 6.692 1.016 8.293 2.836 9.312 8.219 8.73 12.219 0 .074 0 .218.07.293.075.07.145.07.293.07h1.961c.22 0 .364-.145.364-.363 0-5.672-4.364-10.762-11.2-12.946a24.115 24.115 0 0 0-6.91-1.02H87.91c-8.219 0-14.91 6.766-14.91 15.204 0 7.199 5.02 13.308 11.71 14.765-6.69 1.528-11.71 7.563-11.71 14.836 0 8.364 6.691 15.2 14.91 15.2H89.875c2.398 0 4.652-.364 6.761-1.09h.075c6.761-2.18 11.125-7.274 11.125-12.946l5.382-3.128c4-2.329 6.329-5.965 6.329-9.817 0-6.039-5.747-11.129-13.383-12.004Zm-9.746 37.242c-1.891.582-3.926.946-6.036 1.016.727-2.398 2.473-4.582 5.09-6.11l9.82-5.745c.145 3.78-1.527 8.293-8.874 10.84Zm15.855-17.601L94.527 149.56c-3.492 2.035-5.672 5.016-6.18 8.289-7.129-.363-12.8-6.762-12.8-14.473 0-7.855 5.742-14.183 12.945-14.402a8.305 8.305 0 0 0-.438 2.691c0 .22.22.364.364.364h1.746c.074 0 .218-.07.218-.145.07-.07.145-.144.145-.289-.582-3.418.293-8 7.348-10.476 0-.07.07-.07.07-.07 1.82-.583 3.781-.876 5.82-.876h1.528c.289.074.507.074.8.074 6.762.872 11.637 5.239 11.637 10.473 0 3.348-1.965 6.473-5.457 8.512Zm0 0"/><path fill="#392717" d="M81.892 236.245h1.531V225.47h.04l4.593 10.774h1.625l4.594-10.793h.035v10.793h1.531v-13.008h-2.214l-4.743 11.328h-.015l-4.762-11.328h-2.215ZM100.195 236.245h1.644l1.2-3.117h6.27l1.183 3.117h1.62l-5.015-13.008h-1.847Zm3.285-4.484 2.676-7.008h.035l2.656 7.008ZM125.877 236.612c.906 0 1.68-.496 2.215-1.234l-.773-.903c-.297.516-.723.848-1.145.848-.406 0-.664-.312-.777-.758l-.645-2.344c-.223-.773-.664-1.402-1.363-1.75v-.02c2.176-.296 3.523-1.679 3.523-3.487 0-2.176-1.922-3.727-4.613-3.727h-5.832v13.008h1.531v-5.496h3.285c.887 0 1.641.664 1.918 1.62l.793 2.731c.262.887.852 1.512 1.883 1.512Zm-7.879-7.23v-4.778h4.301c1.809 0 3.082.996 3.082 2.399 0 1.402-1.273 2.379-3.082 2.379ZM138.701 236.706c3.395 0 5.868-2.047 6.364-5.258l-1.477-.367c-.387 2.597-2.285 4.262-4.887 4.262-3.265 0-5.351-2.18-5.37-5.594 0-3.43 1.921-5.606 4.964-5.606 2.14 0 3.762 1.364 4.152 3.54l1.457-.348c-.59-2.785-2.789-4.559-5.609-4.559-3.984 0-6.496 2.711-6.496 6.973 0 4.246 2.676 6.957 6.902 6.957ZM149.603 236.245h1.531v-6.09h7.195v6.09h1.532v-13.008h-1.532v5.555h-7.195v-5.555h-1.531ZM107.043 270.4c6.496 0 10.734-5.07 10.734-12.46 0-7.422-4.238-12.457-10.734-12.457-6.492 0-10.77 5.035-10.77 12.457 0 7.39 4.278 12.46 10.77 12.46Zm0-4.706c-3.18 0-5.27-3.18-5.27-7.754 0-4.606 2.09-7.785 5.27-7.785 3.18 0 5.234 3.18 5.234 7.785 0 4.574-2.054 7.754-5.234 7.754ZM125.76 269.737h18.023v-4.008h-12.325c0-1.89.926-3.051 3.414-4.278l3.079-1.324c4.175-1.758 5.832-3.777 5.832-7.09 0-4.539-3.313-7.554-8.317-7.554-5.101 0-8.781 3.28-9.144 8.215l5.402.96c.098-3.011 1.59-4.671 3.543-4.671 1.66 0 2.816 1.093 2.816 2.918 0 1.82-.925 2.949-3.41 4.109l-2.652 1.16c-4.473 1.887-6.23 4.371-6.262 8.945ZM95.042 289.833h8.82v-1.363h-7.27c0-1.55.664-2.492 2.528-3.543l1.64-.922c2.012-1.125 2.73-2.16 2.73-3.82 0-2.215-1.62-3.82-3.929-3.82-2.472 0-4.297 1.808-4.39 4.39l1.511.297c.074-2.16 1.274-3.32 2.844-3.32 1.438 0 2.414.996 2.414 2.36 0 1.163-.535 1.921-2.047 2.804l-1.512.867c-2.433 1.383-3.32 2.656-3.34 4.98ZM114.108 290.294c3.285 0 5.515-2.933 5.515-6.953 0-4.043-2.23-6.976-5.515-6.976-3.301 0-5.536 2.933-5.536 6.976 0 4.02 2.235 6.953 5.536 6.953Zm0-1.363c-2.399 0-4.004-2.363-4.004-5.59 0-3.25 1.605-5.61 4.004-5.61 2.398 0 3.984 2.36 3.984 5.61 0 3.227-1.586 5.59-3.984 5.59ZM124.517 289.833h8.82v-1.363h-7.269c0-1.55.664-2.492 2.528-3.543l1.64-.922c2.012-1.125 2.73-2.16 2.73-3.82 0-2.215-1.62-3.82-3.929-3.82-2.473 0-4.297 1.808-4.39 4.39l1.511.297c.074-2.16 1.274-3.32 2.844-3.32 1.437 0 2.414.996 2.414 2.36 0 1.163-.535 1.921-2.047 2.804l-1.512.867c-2.433 1.383-3.32 2.656-3.34 4.98ZM143.915 289.833h1.532v-2.953h1.64v-1.363h-1.64v-8.692h-2.16l-5.793 9.06v.995h6.421Zm-4.539-4.316 4.52-7.086h.02v7.086ZM84.82 271.266v-.883h.883v.883m-.883-1.766v-.883h.883v.883m-.883-1.766v-.882h.883v.882m-.883-1.765v-.883h.883v.883m-.883-1.762v-.883h.883v.883m-.883-1.766v-.882h.883v.882m-.883-1.765v-.883h.883v.883m-.883-1.766v-.883h.883v.883m-.883-1.765v-.883h.883v.883m-.883-1.762v-.883h.883v.883m-.883-1.766v-.883h.883v.883m-.883-1.765v-.883h.883v.883m-.883-1.766v-.883h.883v.883m-.883-1.766v-.882h.883v.882m-.883-1.765v-.88h.883v.88M154.164 271.266v-.883h.883v.883m-.883-1.766v-.883h.883v.883m-.883-1.766v-.882h.883v.882m-.883-1.765v-.883h.883v.883m-.883-1.762v-.883h.883v.883m-.883-1.766v-.882h.883v.882m-.883-1.765v-.883h.883v.883m-.883-1.766v-.883h.883v.883m-.883-1.765v-.883h.883v.883m-.883-1.762v-.883h.883v.883m-.883-1.766v-.883h.883v.883m-.883-1.765v-.883h.883v.883m-.883-1.766v-.883h.883v.883m-.883-1.766v-.882h.883v.882m-.883-1.765v-.88h.883v.88M24.48 316.397h2.028L29.2 306.03h.035l2.656 10.367h2.043l3.426-11.715h-1.43l-3.008 10.368h-.03l-2.61-10.368h-2.145l-2.594 10.368h-.03l-3.044-10.368h-1.426ZM38.661 316.397h8.176v-1.23H40.01v-4.219h5.996v-1.2H40.01v-3.835h6.664v-1.23h-8.012ZM53.06 316.397h1.379v-5.484h6.48v5.484h1.38v-11.715h-1.38v5h-6.48v-5H53.06ZM70.319 316.811c3.82 0 6.316-2.492 6.316-6.261 0-3.79-2.496-6.282-6.316-6.282-3.805 0-6.297 2.493-6.297 6.282 0 3.77 2.492 6.261 6.297 6.261Zm0-1.226c-2.973 0-4.918-2.012-4.918-5.035 0-3.043 1.945-5.051 4.918-5.051 2.976 0 4.918 2.008 4.918 5.05 0 3.024-1.942 5.036-4.918 5.036ZM78.353 316.397H79.7v-4.62h3.457c2.493 0 4.254-1.462 4.254-3.54 0-2.074-1.746-3.555-4.254-3.555h-4.804Zm1.347-5.867v-4.617h3.457c1.692 0 2.872.965 2.872 2.324 0 1.348-1.196 2.293-2.872 2.293ZM88.882 316.397h8.176v-1.23h-6.829v-4.219h5.997v-1.2h-5.997v-3.835h6.665v-1.23h-8.012ZM106.37 316.397h1.383v-10.484h3.918v-1.23h-9.219v1.23h3.918ZM118.862 316.811c3.82 0 6.316-2.492 6.316-6.261 0-3.79-2.496-6.282-6.316-6.282-3.805 0-6.297 2.493-6.297 6.282 0 3.77 2.492 6.261 6.297 6.261Zm0-1.226c-2.973 0-4.918-2.012-4.918-5.035 0-3.043 1.945-5.051 4.918-5.051 2.976 0 4.918 2.008 4.918 5.05 0 3.024-1.942 5.036-4.918 5.036ZM135.965 316.811c2.645 0 4.355-1.562 4.355-3.703 0-1.597-1.128-2.66-3.39-3.156l-1.895-.434c-1.476-.332-2.11-.898-2.11-1.894 0-1.215 1.017-2.125 2.61-2.125 1.496 0 2.61.976 2.774 2.406l1.312-.332c-.332-1.96-1.96-3.305-4.101-3.305-2.395 0-3.973 1.477-3.973 3.59 0 1.559.98 2.508 3.059 2.989l1.894.433c1.711.399 2.442 1.012 2.442 2.043 0 1.281-1.13 2.262-2.977 2.262-2.043 0-3.586-1.297-3.703-3.125l-1.363.25c.265 2.406 2.359 4.101 5.066 4.101ZM141.793 316.397h8.175v-1.23h-6.828v-4.219h5.996v-1.2h-5.996v-3.835h6.664v-1.23h-8.011ZM151.525 316.397h8.175v-1.23h-6.828v-4.219h5.996v-1.2h-5.996v-3.835h6.664v-1.23h-8.011ZM169.314 316.397h1.379v-4.351l4.203-7.364h-1.563l-3.304 6.032h-.016l-3.39-6.032h-1.528l4.219 7.364ZM182.086 316.811c3.82 0 6.316-2.492 6.316-6.261 0-3.79-2.496-6.282-6.316-6.282-3.805 0-6.297 2.493-6.297 6.282 0 3.77 2.492 6.261 6.297 6.261Zm0-1.226c-2.973 0-4.918-2.012-4.918-5.035 0-3.043 1.945-5.051 4.918-5.051 2.976 0 4.918 2.008 4.918 5.05 0 3.024-1.942 5.036-4.918 5.036ZM194.706 316.811c2.808 0 4.754-1.96 4.754-4.8v-7.329h-1.395v7.329c0 2.109-1.316 3.574-3.36 3.574-2.058 0-3.37-1.613-3.37-3.574v-7.329h-1.38v7.329c0 2.84 1.927 4.8 4.75 4.8ZM205.268 316.397h1.477l1.082-2.808h5.648l1.063 2.808h1.46l-4.519-11.715h-1.66Zm2.957-4.039 2.41-6.312h.032l2.394 6.312ZM221.708 316.811c2.645 0 4.356-1.562 4.356-3.703 0-1.597-1.129-2.66-3.39-3.156l-1.895-.434c-1.477-.332-2.11-.898-2.11-1.894 0-1.215 1.016-2.125 2.61-2.125 1.496 0 2.61.976 2.773 2.406l1.313-.332c-.332-1.96-1.961-3.305-4.102-3.305-2.394 0-3.973 1.477-3.973 3.59 0 1.559.981 2.508 3.06 2.989l1.894.433c1.71.399 2.441 1.012 2.441 2.043 0 1.281-1.129 2.262-2.977 2.262-2.043 0-3.585-1.297-3.703-3.125l-1.363.25c.266 2.406 2.36 4.101 5.066 4.101ZM20.165 338.103h2.028l2.691-10.367h.035l2.657 10.367h2.043l3.425-11.714h-1.43l-3.007 10.367h-.031l-2.61-10.367h-2.144l-2.594 10.367h-.031l-3.043-10.367h-1.426ZM34.346 338.103h8.176v-1.23h-6.828v-4.219h5.996v-1.199h-5.996v-3.836h6.664v-1.23h-8.012ZM54.545 338.517c3.059 0 5.285-1.843 5.73-4.734l-1.327-.332c-.348 2.344-2.059 3.84-4.403 3.84-2.941 0-4.82-1.961-4.836-5.035 0-3.094 1.727-5.051 4.47-5.051 1.929 0 3.39 1.227 3.737 3.187l1.313-.316c-.531-2.508-2.508-4.101-5.05-4.101-3.59 0-5.849 2.44-5.849 6.28 0 3.821 2.41 6.262 6.215 6.262ZM61.748 338.103h8.176v-1.23h-6.828v-4.219h5.996v-1.199h-5.996v-3.836h6.664v-1.23h-8.012ZM71.48 338.103h7.379v-1.23h-6v-10.484h-1.38ZM80.165 338.103h8.176v-1.23h-6.828v-4.219h5.996v-1.199h-5.996v-3.836h6.664v-1.23h-8.012ZM89.897 338.103h5.383c2.543 0 4.008-1.195 4.008-3.273 0-1.48-.8-2.477-2.211-2.773v-.02c1.164-.312 1.844-1.21 1.844-2.492 0-2.008-1.328-3.156-3.657-3.156h-5.367Zm1.38-6.648v-3.836H95.1c1.563 0 2.457.715 2.457 1.926 0 1.215-.894 1.91-2.457 1.91Zm0 5.418v-4.188H95.1c1.778 0 2.825.766 2.825 2.079 0 1.347-1.047 2.109-2.825 2.109ZM109.401 338.435c.813 0 1.512-.449 1.992-1.113l-.699-.812c-.266.465-.644.761-1.027.761-.367 0-.598-.28-.7-.68l-.582-2.109c-.199-.699-.597-1.265-1.23-1.578v-.02c1.96-.265 3.176-1.511 3.176-3.14 0-1.96-1.73-3.355-4.156-3.355h-5.25v11.714h1.378v-4.953h2.957c.801 0 1.48.602 1.73 1.465l.716 2.457c.23.797.761 1.363 1.695 1.363Zm-7.098-6.511v-4.305h3.872c1.628 0 2.777.898 2.777 2.16s-1.149 2.145-2.777 2.145ZM111.705 338.103h1.476l1.082-2.808h5.649l1.062 2.808h1.461l-4.52-11.714h-1.66Zm2.957-4.039 2.41-6.312h.031l2.395 6.312ZM126.833 338.103h1.383V327.62h3.918v-1.23h-9.22v1.23h3.919ZM133.442 338.103h8.175v-1.23h-6.828v-4.219h5.996v-1.199h-5.996v-3.836h6.664v-1.23h-8.011ZM150.93 338.103h1.383V327.62h3.918v-1.23h-9.219v1.23h3.918ZM157.539 338.103h1.379v-5.484h6.48v5.484h1.38V326.39h-1.38v5h-6.48v-5h-1.38ZM168.915 338.103h8.176v-1.23h-6.829v-4.219h5.997v-1.199h-5.997v-3.836h6.665v-1.23h-8.012ZM183.313 338.103h1.38V328.4h.034l4.137 9.703h1.461l4.14-9.718h.032v9.718h1.379V326.39h-1.992l-4.274 10.203h-.015l-4.286-10.203h-1.996ZM203.894 338.517c3.82 0 6.316-2.492 6.316-6.261 0-3.79-2.496-6.281-6.316-6.281-3.805 0-6.297 2.492-6.297 6.28 0 3.77 2.492 6.262 6.297 6.262Zm0-1.226c-2.973 0-4.918-2.012-4.918-5.035 0-3.043 1.945-5.051 4.918-5.051 2.976 0 4.918 2.008 4.918 5.05 0 3.024-1.942 5.036-4.918 5.036ZM216.33 338.517c2.644 0 4.355-1.562 4.355-3.703 0-1.597-1.128-2.66-3.39-3.156l-1.895-.433c-1.476-.333-2.11-.899-2.11-1.895 0-1.215 1.017-2.125 2.61-2.125 1.496 0 2.61.977 2.774 2.406l1.312-.332c-.332-1.96-1.96-3.304-4.101-3.304-2.395 0-3.973 1.476-3.973 3.59 0 1.558.98 2.507 3.059 2.988l1.894.433c1.711.399 2.442 1.012 2.442 2.043 0 1.281-1.13 2.262-2.977 2.262-2.043 0-3.586-1.297-3.703-3.125l-1.363.25c.265 2.406 2.359 4.101 5.066 4.101ZM225.248 338.103h1.382V327.62h3.918v-1.23h-9.218v1.23h3.918ZM18.13 359.81h1.378v-11.715h-1.379ZM21.65 359.81h1.379v-9.704h.035l4.137 9.704h1.46l4.141-9.72h.032v9.72h1.378v-11.715H32.22l-4.273 10.203h-.016l-4.285-10.203H21.65ZM36.347 359.81h1.348v-4.622h3.457c2.492 0 4.254-1.46 4.254-3.539 0-2.074-1.746-3.554-4.254-3.554h-4.805Zm1.348-5.868v-4.617h3.457c1.691 0 2.871.965 2.871 2.324 0 1.348-1.195 2.293-2.871 2.293ZM52.76 360.224c3.82 0 6.316-2.493 6.316-6.262 0-3.79-2.497-6.281-6.317-6.281-3.805 0-6.297 2.492-6.297 6.28 0 3.77 2.492 6.263 6.297 6.263Zm0-1.227c-2.974 0-4.919-2.012-4.919-5.035 0-3.043 1.945-5.05 4.918-5.05 2.977 0 4.918 2.007 4.918 5.05 0 3.023-1.941 5.035-4.918 5.035ZM69.27 360.142c.812 0 1.511-.45 1.992-1.114l-.7-.812c-.265.465-.644.762-1.027.762-.367 0-.597-.282-.699-.68l-.582-2.11c-.2-.699-.598-1.265-1.23-1.578v-.02c1.96-.265 3.175-1.51 3.175-3.14 0-1.96-1.73-3.355-4.156-3.355h-5.25v11.715h1.38v-4.954h2.956c.8 0 1.48.602 1.73 1.465l.715 2.457c.23.797.762 1.364 1.696 1.364Zm-7.098-6.512v-4.305h3.871c1.63 0 2.778.899 2.778 2.16 0 1.262-1.149 2.145-2.778 2.145ZM75.491 359.81h1.383v-10.485h3.918v-1.23h-9.218v1.23h3.917ZM81.272 359.81h1.477L83.83 357h5.648l1.063 2.809h1.46l-4.519-11.715h-1.66Zm2.957-4.04 2.41-6.312h.032l2.394 6.313ZM93.31 359.81h1.38v-9.922h.034l6.016 9.922h1.844v-11.715h-1.395v9.937h-.035l-6-9.937H93.31ZM107.81 359.81h1.382v-10.485h3.918v-1.23h-9.219v1.23h3.918ZM124.968 360.224c3.82 0 6.316-2.493 6.316-6.262 0-3.79-2.496-6.281-6.316-6.281-3.805 0-6.297 2.492-6.297 6.28 0 3.77 2.492 6.263 6.297 6.263Zm0-1.227c-2.973 0-4.918-2.012-4.918-5.035 0-3.043 1.945-5.05 4.918-5.05 2.976 0 4.918 2.007 4.918 5.05 0 3.023-1.942 5.035-4.918 5.035ZM133.002 359.81h1.379v-5.25h5.035v-1.18h-5.035v-4.055h6.015v-1.23h-7.394ZM152.42 360.224c3.82 0 6.316-2.493 6.316-6.262 0-3.79-2.496-6.281-6.317-6.281-3.804 0-6.296 2.492-6.296 6.28 0 3.77 2.492 6.263 6.296 6.263Zm0-1.227c-2.973 0-4.919-2.012-4.919-5.035 0-3.043 1.946-5.05 4.918-5.05 2.977 0 4.918 2.007 4.918 5.05 0 3.023-1.941 5.035-4.918 5.035ZM165.04 360.224c2.808 0 4.753-1.961 4.753-4.801v-7.328H168.4v7.328c0 2.11-1.317 3.574-3.36 3.574-2.058 0-3.37-1.613-3.37-3.574v-7.328h-1.38v7.328c0 2.84 1.926 4.8 4.75 4.8ZM180.24 360.142c.812 0 1.511-.45 1.992-1.114l-.7-.812c-.265.465-.644.762-1.027.762-.367 0-.597-.282-.699-.68l-.582-2.11c-.2-.699-.598-1.265-1.23-1.578v-.02c1.96-.265 3.175-1.51 3.175-3.14 0-1.96-1.73-3.355-4.156-3.355h-5.25v11.715h1.379v-4.954h2.957c.8 0 1.48.602 1.73 1.465l.715 2.457c.23.797.762 1.364 1.696 1.364Zm-7.098-6.512v-4.305h3.871c1.629 0 2.777.899 2.777 2.16 0 1.262-1.148 2.145-2.777 2.145ZM188.038 359.81h7.38v-1.23h-6v-10.485h-1.38ZM196.724 359.81h1.379v-11.715h-1.38ZM203.917 359.81h1.597l4.5-11.715h-1.46l-3.805 10.203h-.032l-3.84-10.203h-1.46ZM211.322 359.81h8.176v-1.23h-6.829v-4.22h5.996v-1.199h-5.996v-3.836h6.664v-1.23h-8.011ZM225.456 360.224c2.644 0 4.355-1.563 4.355-3.703 0-1.598-1.128-2.66-3.39-3.157l-1.895-.433c-1.476-.332-2.11-.899-2.11-1.895 0-1.215 1.017-2.125 2.61-2.125 1.496 0 2.61.977 2.774 2.406l1.312-.332c-.332-1.96-1.96-3.304-4.101-3.304-2.395 0-3.973 1.476-3.973 3.59 0 1.558.98 2.507 3.059 2.988l1.894.433c1.711.399 2.442 1.012 2.442 2.043 0 1.282-1.13 2.262-2.977 2.262-2.043 0-3.586-1.297-3.703-3.125l-1.363.25c.265 2.406 2.359 4.102 5.066 4.102Zm0 0"/></svg>